<svg xmlns="http://www.w3.org/2000/svg" xmlns:xlink="http://www.w3.org/1999/xlink" version="1.1" width="256" height="256" viewBox="0 0 256 256" xml:space="preserve">

<defs>
</defs>
<g style="stroke: none; stroke-width: 0; stroke-dasharray: none; stroke-linecap: butt; stroke-linejoin: miter; stroke-miterlimit: 10; fill: none; fill-rule: nonzero; opacity: 1;" transform="translate(40.54163424124515 40.54163424124512) scale(1.93 1.93)" >
	<path d="M 48.931 72.664 H 60.8 h 3 h 11.87 c 0.481 0 0.935 -0.231 1.217 -0.622 c 0.281 -0.392 0.358 -0.894 0.207 -1.351 l -3.661 -11.017 h 1.169 c 0.476 0 0.923 -0.226 1.206 -0.608 c 0.283 -0.382 0.367 -0.876 0.229 -1.331 L 63.734 17.542 c -0.193 -0.63 -0.775 -1.061 -1.435 -1.061 s -1.241 0.431 -1.435 1.061 L 48.563 57.735 c -0.139 0.455 -0.055 0.949 0.229 1.331 c 0.283 0.383 0.73 0.608 1.206 0.608 h 1.17 l -3.661 11.017 c -0.151 0.457 -0.074 0.959 0.207 1.351 C 47.996 72.433 48.449 72.664 48.931 72.664 z" style="stroke: none; stroke-width: 1; stroke-dasharray: none; stroke-linecap: butt; stroke-linejoin: miter; stroke-miterlimit: 10; fill: rgb(153,213,59); fill-rule: nonzero; opacity: 1;" transform=" matrix(1 0 0 1 0 0) " stroke-linecap="round" />
	<path d="M 60.8 72.664 v 13.144 c 0 0.828 0.671 1.5 1.5 1.5 c 0.828 0 1.5 -0.672 1.5 -1.5 V 72.664 H 60.8 z" style="stroke: none; stroke-width: 1; stroke-dasharray: none; stroke-linecap: butt; stroke-linejoin: miter; stroke-miterlimit: 10; fill: rgb(133,186,50); fill-rule: nonzero; opacity: 1;" transform=" matrix(1 0 0 1 0 0) " stroke-linecap="round" />
	<path d="M 15.657 72.664 h 10.75 h 3 h 10.75 c 0.482 0 0.935 -0.231 1.216 -0.622 c 0.282 -0.392 0.359 -0.894 0.207 -1.351 l -3.299 -9.928 h 0.897 c 0.476 0 0.923 -0.226 1.206 -0.608 c 0.283 -0.382 0.368 -0.876 0.228 -1.331 L 29.341 21.999 c -0.193 -0.63 -0.775 -1.061 -1.435 -1.061 s -1.241 0.431 -1.435 1.061 L 15.201 58.824 c -0.14 0.455 -0.055 0.949 0.228 1.331 c 0.283 0.383 0.73 0.608 1.206 0.608 h 0.897 l -3.299 9.928 c -0.152 0.457 -0.075 0.959 0.207 1.351 C 14.722 72.433 15.175 72.664 15.657 72.664 z" style="stroke: none; stroke-width: 1; stroke-dasharray: none; stroke-linecap: butt; stroke-linejoin: miter; stroke-miterlimit: 10; fill: rgb(153,213,59); fill-rule: nonzero; opacity: 1;" transform=" matrix(1 0 0 1 0 0) " stroke-linecap="round" />
	<path d="M 26.406 72.664 v 13.144 c 0 0.828 0.671 1.5 1.5 1.5 c 0.828 0 1.5 -0.672 1.5 -1.5 V 72.664 H 26.406 z" style="stroke: none; stroke-width: 1; stroke-dasharray: none; stroke-linecap: butt; stroke-linejoin: miter; stroke-miterlimit: 10; fill: rgb(133,186,50); fill-rule: nonzero; opacity: 1;" transform=" matrix(1 0 0 1 0 0) " stroke-linecap="round" />
	<path d="M 63.768 70.691 l -4.781 -14.387 h 2.012 c 0.476 0 0.923 -0.226 1.206 -0.608 c 0.283 -0.382 0.367 -0.876 0.229 -1.331 L 46.939 3.744 c -0.193 -0.63 -0.775 -1.061 -1.435 -1.061 s -1.241 0.431 -1.434 1.061 L 28.577 54.365 c -0.14 0.455 -0.055 0.949 0.228 1.331 c 0.283 0.383 0.73 0.608 1.206 0.608 h 2.013 l -4.781 14.387 c -0.152 0.457 -0.075 0.959 0.207 1.351 c 0.282 0.391 0.734 0.622 1.216 0.622 h 33.677 c 0.481 0 0.935 -0.231 1.217 -0.622 C 63.842 71.65 63.919 71.148 63.768 70.691 z" style="stroke: none; stroke-width: 1; stroke-dasharray: none; stroke-linecap: butt; stroke-linejoin: miter; stroke-miterlimit: 10; fill: rgb(28,165,111); fill-rule: nonzero; opacity: 1;" transform=" matrix(1 0 0 1 0 0) " stroke-linecap="round" />
	<path d="M 45.505 87.308 c -0.829 0 -1.5 -0.672 -1.5 -1.5 v -40.21 c 0 -0.829 0.671 -1.5 1.5 -1.5 c 0.828 0 1.5 0.671 1.5 1.5 v 40.21 C 47.005 86.636 46.333 87.308 45.505 87.308 z" style="stroke: none; stroke-width: 1; stroke-dasharray: none; stroke-linecap: butt; stroke-linejoin: miter; stroke-miterlimit: 10; fill: rgb(23,139,93); fill-rule: nonzero; opacity: 1;" transform=" matrix(1 0 0 1 0 0) " stroke-linecap="round" />
	<path d="M 45.505 65.825 c -0.384 0 -0.768 -0.146 -1.061 -0.439 c -0.586 -0.586 -0.586 -1.535 0 -2.121 l 4.652 -4.652 c 0.586 -0.586 1.535 -0.586 2.121 0 s 0.586 1.535 0 2.121 l -4.652 4.652 C 46.272 65.679 45.889 65.825 45.505 65.825 z" style="stroke: none; stroke-width: 1; stroke-dasharray: none; stroke-linecap: butt; stroke-linejoin: miter; stroke-miterlimit: 10; fill: rgb(23,139,93); fill-rule: nonzero; opacity: 1;" transform=" matrix(1 0 0 1 0 0) " stroke-linecap="round" />
	<path d="M 45.505 58.76 c -0.384 0 -0.768 -0.146 -1.061 -0.439 l -4.836 -4.837 c -0.586 -0.586 -0.586 -1.535 0 -2.121 s 1.535 -0.586 2.121 0 l 4.836 4.837 c 0.586 0.586 0.586 1.535 0 2.121 C 46.272 58.613 45.889 58.76 45.505 58.76 z" style="stroke: none; stroke-width: 1; stroke-dasharray: none; stroke-linecap: butt; stroke-linejoin: miter; stroke-miterlimit: 10; fill: rgb(23,139,93); fill-rule: nonzero; opacity: 1;" transform=" matrix(1 0 0 1 0 0) " stroke-linecap="round" />
	<path d="M 89.924 70.691 l -2.637 -7.933 h 0.398 c 0.476 0 0.923 -0.226 1.206 -0.608 c 0.283 -0.382 0.367 -0.876 0.229 -1.331 L 79.739 30.17 c -0.193 -0.63 -0.775 -1.061 -1.435 -1.061 s -1.241 0.431 -1.435 1.061 l -9.381 30.649 c -0.139 0.455 -0.055 0.949 0.229 1.331 c 0.283 0.383 0.73 0.608 1.206 0.608 h 0.398 l -2.637 7.933 c -0.151 0.457 -0.074 0.959 0.207 1.351 c 0.282 0.391 0.735 0.622 1.217 0.622 H 88.5 c 0.481 0 0.935 -0.231 1.217 -0.622 C 89.998 71.65 90.075 71.148 89.924 70.691 z" style="stroke: none; stroke-width: 1; stroke-dasharray: none; stroke-linecap: butt; stroke-linejoin: miter; stroke-miterlimit: 10; fill: rgb(28,165,111); fill-rule: nonzero; opacity: 1;" transform=" matrix(1 0 0 1 0 0) " stroke-linecap="round" />
	<path d="M 78.305 87.308 c -0.828 0 -1.5 -0.672 -1.5 -1.5 V 55.685 c 0 -0.828 0.672 -1.5 1.5 -1.5 s 1.5 0.672 1.5 1.5 v 30.123 C 79.805 86.636 79.133 87.308 78.305 87.308 z" style="stroke: none; stroke-width: 1; stroke-dasharray: none; stroke-linecap: butt; stroke-linejoin: miter; stroke-miterlimit: 10; fill: rgb(23,139,93); fill-rule: nonzero; opacity: 1;" transform=" matrix(1 0 0 1 0 0) " stroke-linecap="round" />
	<path d="M 78.305 68.523 c -0.384 0 -0.768 -0.146 -1.061 -0.439 c -0.586 -0.586 -0.586 -1.535 0 -2.121 l 2.816 -2.816 c 0.586 -0.586 1.535 -0.586 2.121 0 s 0.586 1.535 0 2.121 l -2.816 2.816 C 79.072 68.377 78.688 68.523 78.305 68.523 z" style="stroke: none; stroke-width: 1; stroke-dasharray: none; stroke-linecap: butt; stroke-linejoin: miter; stroke-miterlimit: 10; fill: rgb(23,139,93); fill-rule: nonzero; opacity: 1;" transform=" matrix(1 0 0 1 0 0) " stroke-linecap="round" />
	<path d="M 78.305 64.246 c -0.384 0 -0.768 -0.146 -1.061 -0.439 l -2.929 -2.929 c -0.586 -0.586 -0.586 -1.535 0 -2.121 s 1.535 -0.586 2.121 0 l 2.929 2.929 c 0.586 0.586 0.586 1.535 0 2.121 C 79.072 64.1 78.688 64.246 78.305 64.246 z" style="stroke: none; stroke-width: 1; stroke-dasharray: none; stroke-linecap: butt; stroke-linejoin: miter; stroke-miterlimit: 10; fill: rgb(23,139,93); fill-rule: nonzero; opacity: 1;" transform=" matrix(1 0 0 1 0 0) " stroke-linecap="round" />
	<path d="M 22.991 70.691 l -2.583 -7.775 h 0.359 c 0.476 0 0.923 -0.226 1.206 -0.608 c 0.283 -0.382 0.368 -0.876 0.228 -1.331 l -9.232 -30.164 c -0.193 -0.63 -0.775 -1.061 -1.434 -1.061 s -1.241 0.431 -1.434 1.061 L 0.867 60.977 c -0.14 0.455 -0.055 0.949 0.228 1.331 c 0.283 0.383 0.73 0.608 1.206 0.608 h 0.359 l -2.584 7.775 c -0.152 0.457 -0.075 0.959 0.207 1.351 c 0.282 0.391 0.734 0.622 1.216 0.622 h 20.067 c 0.482 0 0.935 -0.231 1.216 -0.622 C 23.066 71.65 23.143 71.148 22.991 70.691 z" style="stroke: none; stroke-width: 1; stroke-dasharray: none; stroke-linecap: butt; stroke-linejoin: miter; stroke-miterlimit: 10; fill: rgb(28,165,111); fill-rule: nonzero; opacity: 1;" transform=" matrix(1 0 0 1 0 0) " stroke-linecap="round" />
	<path d="M 11.534 87.308 c -0.829 0 -1.5 -0.672 -1.5 -1.5 V 55.93 c 0 -0.828 0.671 -1.5 1.5 -1.5 s 1.5 0.672 1.5 1.5 v 29.878 C 13.034 86.636 12.362 87.308 11.534 87.308 z" style="stroke: none; stroke-width: 1; stroke-dasharray: none; stroke-linecap: butt; stroke-linejoin: miter; stroke-miterlimit: 10; fill: rgb(23,139,93); fill-rule: nonzero; opacity: 1;" transform=" matrix(1 0 0 1 0 0) " stroke-linecap="round" />
	<path d="M 11.534 68.589 c -0.384 0 -0.768 -0.146 -1.061 -0.439 c -0.586 -0.586 -0.586 -1.535 0 -2.121 l 2.772 -2.771 c 0.586 -0.586 1.536 -0.586 2.121 0 c 0.586 0.586 0.586 1.535 0 2.121 l -2.772 2.771 C 12.301 68.442 11.917 68.589 11.534 68.589 z" style="stroke: none; stroke-width: 1; stroke-dasharray: none; stroke-linecap: butt; stroke-linejoin: miter; stroke-miterlimit: 10; fill: rgb(23,139,93); fill-rule: nonzero; opacity: 1;" transform=" matrix(1 0 0 1 0 0) " stroke-linecap="round" />
	<path d="M 11.534 64.379 c -0.384 0 -0.768 -0.146 -1.061 -0.439 l -2.882 -2.882 c -0.586 -0.586 -0.586 -1.535 0 -2.121 s 1.535 -0.586 2.121 0 l 2.882 2.882 c 0.586 0.586 0.586 1.535 0 2.121 C 12.301 64.232 11.917 64.379 11.534 64.379 z" style="stroke: none; stroke-width: 1; stroke-dasharray: none; stroke-linecap: butt; stroke-linejoin: miter; stroke-miterlimit: 10; fill: rgb(23,139,93); fill-rule: nonzero; opacity: 1;" transform=" matrix(1 0 0 1 0 0) " stroke-linecap="round" />
	<path d="M 1.558 87.316 c -0.829 0 -1.5 -0.672 -1.5 -1.5 s 0.671 -1.5 1.5 -1.5 h 86.883 c 0.828 0 1.5 0.672 1.5 1.5 s -0.672 1.5 -1.5 1.5" style="stroke: none; stroke-width: 1; stroke-dasharray: none; stroke-linecap: butt; stroke-linejoin: miter; stroke-miterlimit: 10; fill: rgb(153,213,59); fill-rule: nonzero; opacity: 1;" transform=" matrix(1 0 0 1 0 0) " stroke-linecap="round" />
</g>
</svg>