<?xml version="1.0" encoding="utf-8"?><svg xml:space="preserve" viewBox="0 0 100 100" y="0px" x="0px" xmlns:xlink="http://www.w3.org/1999/xlink" xmlns="http://www.w3.org/2000/svg" id="圖層_1" version="1.1" width="200px" height="200px" style="width:100%;height:100%;background-size:initial;background-repeat-y:initial;background-repeat-x:initial;background-position-y:initial;background-position-x:initial;background-origin:initial;background-image:initial;background-color:rgb(255, 255, 255);background-clip:initial;background-attachment:initial;animation-play-state:paused" ><g class="ldl-scale" style="transform-origin:50% 50%;transform:rotate(0deg) scale(0.8, 0.8);animation-play-state:paused" ><g style="animation-play-state:paused" ><path d="M67.39,63.88L53.62,75.13l-2.99-7.81l13.93-7.64c1.42-0.78,3.21-0.04,3.66,1.52v0C68.51,62.18,68.18,63.23,67.39,63.88z" stroke-miterlimit="10" stroke-linejoin="round" stroke-linecap="round" stroke-width="3.5" stroke="#333435" fill="#C69C6D" style="stroke:rgb(51, 52, 53);fill:rgb(198, 156, 109);animation-play-state:paused" ></path>
<path d="M32.61,63.88l13.78,11.26l2.99-7.81l-13.93-7.64c-1.42-0.78-3.21-0.04-3.66,1.52v0C31.49,62.18,31.82,63.23,32.61,63.88z" stroke-miterlimit="10" stroke-linejoin="round" stroke-linecap="round" stroke-width="3.5" stroke="#333435" fill="#C69C6D" style="stroke:rgb(51, 52, 53);fill:rgb(198, 156, 109);animation-play-state:paused" ></path>
<path d="M63.66,95l-4.63-3.26c-2.13-1.5-3.44-3.89-3.57-6.49l-0.22-4.55l-1.73-24.64h-7.04l-1.73,24.64l-0.22,4.55 c-0.12,2.6-1.44,4.99-3.57,6.49L36.34,95H63.66z" stroke-miterlimit="10" stroke-linejoin="round" stroke-linecap="round" stroke-width="3.5" stroke="#333435" fill="#C69C6D" style="stroke:rgb(51, 52, 53);fill:rgb(198, 156, 109);animation-play-state:paused" ></path></g>
<g style="animation-play-state:paused" ><path d="M84.58,79.5L72.6,59.06C68.94,52.83,62.26,49,55.03,49H44.97c-7.23,0-13.91,3.83-17.57,10.06L15.42,79.5l11.05-2.87l2.35,4.98 l9.41-4.98l4.55,4.98L50,76.63l7.21,4.98l4.55-4.98l9.41,4.98l2.35-4.98L84.58,79.5z" stroke-miterlimit="10" stroke-linejoin="round" stroke-linecap="round" stroke-width="3.5" stroke="#333435" fill="#92BFA8" style="stroke:rgb(51, 52, 53);fill:rgb(146, 191, 168);animation-play-state:paused" ></path>
<path d="M80.99,63.2L70.23,44.42c-3.17-5.53-9.05-8.94-15.42-8.94h-9.6c-6.37,0-12.26,3.41-15.42,8.94L19.01,63.2l9.71-2.72l2.13,4.3 l8.51-4.3l4.12,4.3l6.52-4.3l6.52,4.3l4.12-4.3l8.51,4.3l2.13-4.3L80.99,63.2z" stroke-miterlimit="10" stroke-linejoin="round" stroke-linecap="round" stroke-width="3.5" stroke="#333435" fill="#92BFA8" style="stroke:rgb(51, 52, 53);fill:rgb(146, 191, 168);animation-play-state:paused" ></path>
<path d="M76.2,45.25l-7.46-11.44c-3.66-5.62-9.92-9-16.62-9h-4.24c-6.71,0-12.96,3.39-16.62,9L23.8,45.25l8.07-1.66l1.81,3.23l7.25-3.23 l3.51,3.23L50,43.59l5.56,3.23l3.51-3.23l7.25,3.23l1.81-3.23L76.2,45.25z" stroke-miterlimit="10" stroke-linejoin="round" stroke-linecap="round" stroke-width="3.5" stroke="#333435" fill="#92BFA8" style="stroke:rgb(51, 52, 53);fill:rgb(146, 191, 168);animation-play-state:paused" ></path>
<path d="M73.07,29.94L54.37,7.31C53.25,5.84,51.66,5,50,5h0c-1.66,0-3.25,0.84-4.37,2.31l-18.7,22.63l6.94-2.33l1.61,3.91l6.45-3.91 l3.12,3.91L50,27.61l4.94,3.91l3.12-3.91l6.45,3.91l1.61-3.91L73.07,29.94z" stroke-miterlimit="10" stroke-linejoin="round" stroke-linecap="round" stroke-width="3.5" stroke="#333435" fill="#92BFA8" style="stroke:rgb(51, 52, 53);fill:rgb(146, 191, 168);animation-play-state:paused" ></path></g>
<metadata xmlns:d="https://loading.io/stock/" style="animation-play-state:paused" ><d:name style="animation-play-state:paused" >tree</d:name>


<d:tags style="animation-play-state:paused" >tree,abies alba,plant,picea,cupressaceae</d:tags>


<d:license style="animation-play-state:paused" >by</d:license>


<d:slug style="animation-play-state:paused" >dxqr5t</d:slug></metadata></g><!-- generated by https://loading.io/ --></svg>